<mxfile host="embed.diagrams.net" modified="2023-04-09T13:23:29.291Z" agent="Mozilla/5.0 (X11; Linux x86_64; rv:109.0) Gecko/20100101 Firefox/111.0" etag="C0ULTF2jVT_pYB3W4Wq0" version="21.1.5" type="embed">
  <diagram name="Page-1" id="9f46799a-70d6-7492-0946-bef42562c5a5">
    <mxGraphModel dx="981" dy="710" grid="1" gridSize="10" guides="1" tooltips="1" connect="1" arrows="1" fold="1" page="1" pageScale="1" pageWidth="4681" pageHeight="3300" background="none" math="0" shadow="0">
      <root>
        <mxCell id="0" />
        <mxCell id="1" parent="0" />
        <mxCell id="2" value="&lt;div&gt;User&lt;/div&gt;" style="whiteSpace=wrap;html=1;align=center;fontSize=16;" parent="1" vertex="1">
          <mxGeometry x="2081" y="1450" width="100" height="40" as="geometry" />
        </mxCell>
        <mxCell id="3" value="username" style="ellipse;whiteSpace=wrap;html=1;align=center;fontSize=16;" parent="1" vertex="1">
          <mxGeometry x="1790" y="1370" width="100" height="40" as="geometry" />
        </mxCell>
        <mxCell id="4" value="uuid" style="ellipse;whiteSpace=wrap;html=1;align=center;fontStyle=4;fontSize=16;" parent="1" vertex="1">
          <mxGeometry x="1890" y="1440" width="100" height="40" as="geometry" />
        </mxCell>
        <mxCell id="5" value="email" style="ellipse;whiteSpace=wrap;html=1;align=center;fontSize=16;" parent="1" vertex="1">
          <mxGeometry x="1930" y="1370" width="100" height="40" as="geometry" />
        </mxCell>
        <mxCell id="6" value="password" style="ellipse;whiteSpace=wrap;html=1;align=center;fontSize=16;" parent="1" vertex="1">
          <mxGeometry x="1920" y="1280" width="100" height="40" as="geometry" />
        </mxCell>
        <mxCell id="8" value="" style="endArrow=none;html=1;rounded=0;fontSize=12;startSize=8;endSize=8;curved=1;" parent="1" source="4" target="2" edge="1">
          <mxGeometry relative="1" as="geometry">
            <mxPoint x="2841" y="1830" as="sourcePoint" />
            <mxPoint x="3001" y="1830" as="targetPoint" />
          </mxGeometry>
        </mxCell>
        <mxCell id="9" value="" style="endArrow=none;html=1;rounded=0;fontSize=12;startSize=8;endSize=8;curved=1;" parent="1" source="5" target="2" edge="1">
          <mxGeometry relative="1" as="geometry">
            <mxPoint x="2841" y="1830" as="sourcePoint" />
            <mxPoint x="3001" y="1830" as="targetPoint" />
          </mxGeometry>
        </mxCell>
        <mxCell id="10" value="" style="endArrow=none;html=1;rounded=0;fontSize=12;startSize=8;endSize=8;curved=1;" parent="1" source="2" target="6" edge="1">
          <mxGeometry relative="1" as="geometry">
            <mxPoint x="2841" y="1830" as="sourcePoint" />
            <mxPoint x="3001" y="1830" as="targetPoint" />
          </mxGeometry>
        </mxCell>
        <mxCell id="11" value="" style="endArrow=none;html=1;rounded=0;fontSize=12;startSize=8;endSize=8;curved=1;" parent="1" source="3" target="2" edge="1">
          <mxGeometry relative="1" as="geometry">
            <mxPoint x="2841" y="1830" as="sourcePoint" />
            <mxPoint x="3001" y="1830" as="targetPoint" />
          </mxGeometry>
        </mxCell>
        <mxCell id="12" value="&lt;div&gt;Project&lt;/div&gt;" style="whiteSpace=wrap;html=1;align=center;fontSize=16;" parent="1" vertex="1">
          <mxGeometry x="2816" y="1450" width="100" height="40" as="geometry" />
        </mxCell>
        <mxCell id="13" value="uuid" style="ellipse;whiteSpace=wrap;html=1;align=center;fontStyle=4;fontSize=16;" parent="1" vertex="1">
          <mxGeometry x="2730" y="1230" width="100" height="40" as="geometry" />
        </mxCell>
        <mxCell id="14" value="name" style="ellipse;whiteSpace=wrap;html=1;align=center;fontSize=16;" parent="1" vertex="1">
          <mxGeometry x="2840" y="1290" width="100" height="40" as="geometry" />
        </mxCell>
        <mxCell id="15" value="&lt;div&gt;description&lt;/div&gt;" style="ellipse;whiteSpace=wrap;html=1;align=center;fontSize=16;" parent="1" vertex="1">
          <mxGeometry x="2935" y="1240" width="100" height="40" as="geometry" />
        </mxCell>
        <mxCell id="16" value="date_created" style="ellipse;whiteSpace=wrap;html=1;align=center;fontSize=16;" parent="1" vertex="1">
          <mxGeometry x="2950" y="1330" width="100" height="40" as="geometry" />
        </mxCell>
        <mxCell id="17" value="" style="endArrow=none;html=1;rounded=0;fontSize=12;startSize=8;endSize=8;curved=1;" parent="1" source="12" target="15" edge="1">
          <mxGeometry relative="1" as="geometry">
            <mxPoint x="2721" y="3420" as="sourcePoint" />
            <mxPoint x="2881" y="3420" as="targetPoint" />
          </mxGeometry>
        </mxCell>
        <mxCell id="18" value="" style="endArrow=none;html=1;rounded=0;fontSize=12;startSize=8;endSize=8;curved=1;" parent="1" source="14" target="12" edge="1">
          <mxGeometry relative="1" as="geometry">
            <mxPoint x="2721" y="3420" as="sourcePoint" />
            <mxPoint x="2881" y="3420" as="targetPoint" />
          </mxGeometry>
        </mxCell>
        <mxCell id="19" value="" style="endArrow=none;html=1;rounded=0;fontSize=12;startSize=8;endSize=8;curved=1;" parent="1" source="13" target="12" edge="1">
          <mxGeometry relative="1" as="geometry">
            <mxPoint x="2721" y="3420" as="sourcePoint" />
            <mxPoint x="2881" y="3420" as="targetPoint" />
          </mxGeometry>
        </mxCell>
        <mxCell id="20" value="" style="endArrow=none;html=1;rounded=0;fontSize=12;startSize=8;endSize=8;curved=1;" parent="1" source="12" target="16" edge="1">
          <mxGeometry relative="1" as="geometry">
            <mxPoint x="2721" y="3420" as="sourcePoint" />
            <mxPoint x="2881" y="3420" as="targetPoint" />
          </mxGeometry>
        </mxCell>
        <mxCell id="23" value="" style="endArrow=oval;html=1;rounded=0;fontSize=12;startSize=8;endSize=8;startArrow=none;startFill=0;endFill=0;" parent="1" source="430" target="12" edge="1">
          <mxGeometry relative="1" as="geometry">
            <mxPoint x="2620" y="1530" as="sourcePoint" />
            <mxPoint x="2881" y="3420" as="targetPoint" />
          </mxGeometry>
        </mxCell>
        <mxCell id="26" value="N" style="edgeLabel;html=1;align=center;verticalAlign=middle;resizable=0;points=[];fontSize=16;" parent="23" vertex="1" connectable="0">
          <mxGeometry relative="1" as="geometry">
            <mxPoint as="offset" />
          </mxGeometry>
        </mxCell>
        <mxCell id="24" value="" style="endArrow=none;html=1;rounded=0;fontSize=12;startSize=8;endSize=8;curved=1;" parent="1" source="2" target="430" edge="1">
          <mxGeometry relative="1" as="geometry">
            <mxPoint x="2741" y="1270" as="sourcePoint" />
            <mxPoint x="2480" y="1540" as="targetPoint" />
          </mxGeometry>
        </mxCell>
        <mxCell id="28" value="1" style="edgeLabel;html=1;align=center;verticalAlign=middle;resizable=0;points=[];fontSize=16;" parent="24" vertex="1" connectable="0">
          <mxGeometry relative="1" as="geometry">
            <mxPoint as="offset" />
          </mxGeometry>
        </mxCell>
        <mxCell id="29" value="License" style="whiteSpace=wrap;html=1;align=center;fontSize=16;" parent="1" vertex="1">
          <mxGeometry x="3340" y="1320" width="100" height="40" as="geometry" />
        </mxCell>
        <mxCell id="30" value="protected by" style="shape=rhombus;perimeter=rhombusPerimeter;whiteSpace=wrap;html=1;align=center;fontSize=16;" parent="1" vertex="1">
          <mxGeometry x="3150" y="1390" width="120" height="60" as="geometry" />
        </mxCell>
        <mxCell id="31" value="" style="endArrow=none;html=1;rounded=0;fontSize=12;startSize=8;endSize=8;curved=1;endFill=0;" parent="1" source="30" target="29" edge="1">
          <mxGeometry relative="1" as="geometry">
            <mxPoint x="2841" y="2910" as="sourcePoint" />
            <mxPoint x="3201" y="3440" as="targetPoint" />
          </mxGeometry>
        </mxCell>
        <mxCell id="44" value="&lt;div&gt;N&lt;/div&gt;" style="edgeLabel;html=1;align=center;verticalAlign=middle;resizable=0;points=[];fontSize=16;" parent="31" vertex="1" connectable="0">
          <mxGeometry relative="1" as="geometry">
            <mxPoint as="offset" />
          </mxGeometry>
        </mxCell>
        <mxCell id="32" value="" style="endArrow=none;html=1;rounded=0;fontSize=12;startSize=8;endSize=8;curved=1;startArrow=oval;startFill=0;" parent="1" source="12" target="30" edge="1">
          <mxGeometry relative="1" as="geometry">
            <mxPoint x="2341" y="2460" as="sourcePoint" />
            <mxPoint x="2171" y="2490" as="targetPoint" />
          </mxGeometry>
        </mxCell>
        <mxCell id="45" value="N" style="edgeLabel;html=1;align=center;verticalAlign=middle;resizable=0;points=[];fontSize=16;" parent="32" vertex="1" connectable="0">
          <mxGeometry relative="1" as="geometry">
            <mxPoint as="offset" />
          </mxGeometry>
        </mxCell>
        <mxCell id="33" value="&lt;div&gt;short_name&lt;/div&gt;" style="ellipse;whiteSpace=wrap;html=1;align=center;fontSize=16;" parent="1" vertex="1">
          <mxGeometry x="3430" y="1420" width="100" height="40" as="geometry" />
        </mxCell>
        <mxCell id="34" value="id" style="ellipse;whiteSpace=wrap;html=1;align=center;fontStyle=4;fontSize=16;" parent="1" vertex="1">
          <mxGeometry x="3221" y="1250" width="100" height="40" as="geometry" />
        </mxCell>
        <mxCell id="35" value="&lt;div&gt;full_name&lt;/div&gt;" style="ellipse;whiteSpace=wrap;html=1;align=center;fontSize=16;" parent="1" vertex="1">
          <mxGeometry x="3590" y="1390" width="100" height="40" as="geometry" />
        </mxCell>
        <mxCell id="36" value="url" style="ellipse;whiteSpace=wrap;html=1;align=center;fontSize=16;" parent="1" vertex="1">
          <mxGeometry x="3421" y="1230" width="100" height="40" as="geometry" />
        </mxCell>
        <mxCell id="37" value="description" style="ellipse;whiteSpace=wrap;html=1;align=center;fontSize=16;" parent="1" vertex="1">
          <mxGeometry x="3560" y="1300" width="100" height="40" as="geometry" />
        </mxCell>
        <mxCell id="38" value="" style="endArrow=none;html=1;rounded=0;fontSize=12;startSize=8;endSize=8;curved=1;" parent="1" source="37" target="29" edge="1">
          <mxGeometry relative="1" as="geometry">
            <mxPoint x="2861" y="3338.5" as="sourcePoint" />
            <mxPoint x="3021" y="3338.5" as="targetPoint" />
          </mxGeometry>
        </mxCell>
        <mxCell id="39" value="" style="endArrow=none;html=1;rounded=0;fontSize=12;startSize=8;endSize=8;curved=1;" parent="1" source="29" target="35" edge="1">
          <mxGeometry relative="1" as="geometry">
            <mxPoint x="2711" y="3558.5" as="sourcePoint" />
            <mxPoint x="2871" y="3558.5" as="targetPoint" />
          </mxGeometry>
        </mxCell>
        <mxCell id="40" value="" style="endArrow=none;html=1;rounded=0;fontSize=12;startSize=8;endSize=8;curved=1;" parent="1" source="29" target="36" edge="1">
          <mxGeometry relative="1" as="geometry">
            <mxPoint x="2861" y="3338.5" as="sourcePoint" />
            <mxPoint x="3021" y="3338.5" as="targetPoint" />
          </mxGeometry>
        </mxCell>
        <mxCell id="41" value="" style="endArrow=none;html=1;rounded=0;fontSize=12;startSize=8;endSize=8;curved=1;" parent="1" source="29" target="33" edge="1">
          <mxGeometry relative="1" as="geometry">
            <mxPoint x="2711" y="3558.5" as="sourcePoint" />
            <mxPoint x="2871" y="3558.5" as="targetPoint" />
          </mxGeometry>
        </mxCell>
        <mxCell id="42" value="" style="endArrow=none;html=1;rounded=0;fontSize=12;startSize=8;endSize=8;curved=1;" parent="1" source="34" target="29" edge="1">
          <mxGeometry relative="1" as="geometry">
            <mxPoint x="2861" y="3338.5" as="sourcePoint" />
            <mxPoint x="3021" y="3338.5" as="targetPoint" />
          </mxGeometry>
        </mxCell>
        <mxCell id="47" value="" style="endArrow=none;html=1;rounded=0;fontSize=12;startSize=8;endSize=8;curved=1;startArrow=oval;startFill=0;" parent="1" source="12" target="49" edge="1">
          <mxGeometry relative="1" as="geometry">
            <mxPoint x="2711" y="3500" as="sourcePoint" />
            <mxPoint x="3141" y="3310" as="targetPoint" />
          </mxGeometry>
        </mxCell>
        <mxCell id="61" value="N" style="edgeLabel;html=1;align=center;verticalAlign=middle;resizable=0;points=[];fontSize=16;" parent="47" vertex="1" connectable="0">
          <mxGeometry relative="1" as="geometry">
            <mxPoint as="offset" />
          </mxGeometry>
        </mxCell>
        <mxCell id="48" value="HostingPlatform" style="whiteSpace=wrap;html=1;align=center;fontSize=16;" parent="1" vertex="1">
          <mxGeometry x="3344.9999999999995" y="1720" width="130" height="40" as="geometry" />
        </mxCell>
        <mxCell id="49" value="hosted on" style="shape=rhombus;perimeter=rhombusPerimeter;whiteSpace=wrap;html=1;align=center;fontSize=16;" parent="1" vertex="1">
          <mxGeometry x="3120" y="1670" width="120" height="60" as="geometry" />
        </mxCell>
        <mxCell id="50" value="" style="endArrow=none;html=1;rounded=0;fontSize=12;startSize=8;endSize=8;curved=1;endFill=0;" parent="1" source="49" target="48" edge="1">
          <mxGeometry relative="1" as="geometry">
            <mxPoint x="3101" y="2600" as="sourcePoint" />
            <mxPoint x="3101" y="2790" as="targetPoint" />
          </mxGeometry>
        </mxCell>
        <mxCell id="62" value="1" style="edgeLabel;html=1;align=center;verticalAlign=middle;resizable=0;points=[];fontSize=16;" parent="50" vertex="1" connectable="0">
          <mxGeometry relative="1" as="geometry">
            <mxPoint as="offset" />
          </mxGeometry>
        </mxCell>
        <mxCell id="52" value="name" style="ellipse;whiteSpace=wrap;html=1;align=center;fontSize=16;strokeColor=default;" parent="1" vertex="1">
          <mxGeometry x="3549.9999999999995" y="1710" width="100" height="40" as="geometry" />
        </mxCell>
        <mxCell id="53" value="url" style="ellipse;whiteSpace=wrap;html=1;align=center;fontSize=16;" parent="1" vertex="1">
          <mxGeometry x="3160" y="1580" width="100" height="40" as="geometry" />
        </mxCell>
        <mxCell id="55" value="&lt;div&gt;id&lt;/div&gt;" style="ellipse;whiteSpace=wrap;html=1;align=center;fontStyle=4;fontSize=16;" parent="1" vertex="1">
          <mxGeometry x="3509.9999999999995" y="1780" width="100" height="40" as="geometry" />
        </mxCell>
        <mxCell id="56" value="" style="endArrow=none;html=1;rounded=0;fontSize=12;startSize=8;endSize=8;curved=1;" parent="1" source="49" target="53" edge="1">
          <mxGeometry relative="1" as="geometry">
            <mxPoint x="3177.6099999999997" y="3500" as="sourcePoint" />
            <mxPoint x="3337.6099999999997" y="3500" as="targetPoint" />
          </mxGeometry>
        </mxCell>
        <mxCell id="57" value="" style="endArrow=none;html=1;rounded=0;fontSize=12;startSize=8;endSize=8;curved=1;" parent="1" source="52" target="48" edge="1">
          <mxGeometry relative="1" as="geometry">
            <mxPoint x="3177.6099999999997" y="3500" as="sourcePoint" />
            <mxPoint x="3337.6099999999997" y="3500" as="targetPoint" />
          </mxGeometry>
        </mxCell>
        <mxCell id="58" value="" style="endArrow=none;html=1;rounded=0;fontSize=12;startSize=8;endSize=8;curved=1;" parent="1" source="55" target="48" edge="1">
          <mxGeometry relative="1" as="geometry">
            <mxPoint x="3177.6099999999997" y="3500" as="sourcePoint" />
            <mxPoint x="3337.6099999999997" y="3500" as="targetPoint" />
          </mxGeometry>
        </mxCell>
        <mxCell id="65" value="date_joined" style="ellipse;whiteSpace=wrap;html=1;align=center;fontSize=16;" parent="1" vertex="1">
          <mxGeometry x="2030" y="1330" width="100" height="40" as="geometry" />
        </mxCell>
        <mxCell id="66" value="" style="endArrow=none;html=1;rounded=0;fontSize=12;startSize=8;endSize=8;curved=1;" parent="1" source="65" target="2" edge="1">
          <mxGeometry relative="1" as="geometry">
            <mxPoint x="2471" y="1830" as="sourcePoint" />
            <mxPoint x="2521" y="1750" as="targetPoint" />
          </mxGeometry>
        </mxCell>
        <mxCell id="68" value="ProgrammingLanguage" style="whiteSpace=wrap;html=1;align=center;fontSize=16;" parent="1" vertex="1">
          <mxGeometry x="3470" y="1510" width="200" height="40" as="geometry" />
        </mxCell>
        <mxCell id="69" value="written in" style="shape=rhombus;perimeter=rhombusPerimeter;whiteSpace=wrap;html=1;align=center;fontSize=16;" parent="1" vertex="1">
          <mxGeometry x="3250" y="1500" width="120" height="60" as="geometry" />
        </mxCell>
        <mxCell id="70" value="" style="endArrow=oval;html=1;rounded=0;fontSize=12;startSize=8;endSize=8;curved=1;endFill=0;" parent="1" source="69" target="68" edge="1">
          <mxGeometry relative="1" as="geometry">
            <mxPoint x="3190" y="2720" as="sourcePoint" />
            <mxPoint x="3380" y="2680" as="targetPoint" />
          </mxGeometry>
        </mxCell>
        <mxCell id="76" value="N" style="edgeLabel;html=1;align=center;verticalAlign=middle;resizable=0;points=[];fontSize=16;" parent="70" vertex="1" connectable="0">
          <mxGeometry relative="1" as="geometry">
            <mxPoint as="offset" />
          </mxGeometry>
        </mxCell>
        <mxCell id="71" value="" style="endArrow=none;html=1;rounded=0;fontSize=12;startSize=8;endSize=8;curved=1;startArrow=oval;startFill=0;" parent="1" source="12" target="69" edge="1">
          <mxGeometry relative="1" as="geometry">
            <mxPoint x="2901" y="3030" as="sourcePoint" />
            <mxPoint x="3061" y="3030" as="targetPoint" />
          </mxGeometry>
        </mxCell>
        <mxCell id="77" value="N" style="edgeLabel;html=1;align=center;verticalAlign=middle;resizable=0;points=[];fontSize=16;" parent="71" vertex="1" connectable="0">
          <mxGeometry relative="1" as="geometry">
            <mxPoint as="offset" />
          </mxGeometry>
        </mxCell>
        <mxCell id="73" value="percentage" style="ellipse;whiteSpace=wrap;html=1;align=center;fontSize=16;" parent="1" vertex="1">
          <mxGeometry x="3360" y="1610" width="100" height="40" as="geometry" />
        </mxCell>
        <mxCell id="74" value="" style="endArrow=none;html=1;rounded=0;fontSize=12;startSize=8;endSize=8;curved=1;" parent="1" source="68" target="105" edge="1">
          <mxGeometry relative="1" as="geometry">
            <mxPoint x="3190" y="2660" as="sourcePoint" />
            <mxPoint x="3159.9999999999995" y="2440" as="targetPoint" />
          </mxGeometry>
        </mxCell>
        <mxCell id="75" value="" style="endArrow=none;html=1;rounded=0;fontSize=12;startSize=8;endSize=8;curved=1;" parent="1" source="69" target="73" edge="1">
          <mxGeometry relative="1" as="geometry">
            <mxPoint x="3190" y="2660" as="sourcePoint" />
            <mxPoint x="3293.6424699134514" y="1620.0531409501523" as="targetPoint" />
          </mxGeometry>
        </mxCell>
        <mxCell id="95" style="edgeStyle=none;curved=1;rounded=0;orthogonalLoop=1;jettySize=auto;html=1;exitX=1;exitY=0;exitDx=0;exitDy=0;fontSize=12;startSize=8;endSize=8;" parent="1" edge="1">
          <mxGeometry relative="1" as="geometry">
            <mxPoint x="2398.79" y="1505" as="sourcePoint" />
            <mxPoint x="2398.79" y="1505" as="targetPoint" />
          </mxGeometry>
        </mxCell>
        <mxCell id="105" value="&lt;div&gt;id&lt;/div&gt;" style="ellipse;whiteSpace=wrap;html=1;align=center;fontStyle=4;fontSize=16;" parent="1" vertex="1">
          <mxGeometry x="3690" y="1430" width="100" height="40" as="geometry" />
        </mxCell>
        <mxCell id="106" value="name" style="ellipse;whiteSpace=wrap;html=1;align=center;fontSize=16;" parent="1" vertex="1">
          <mxGeometry x="3660" y="1570" width="100" height="40" as="geometry" />
        </mxCell>
        <mxCell id="107" value="" style="endArrow=none;html=1;rounded=0;fontSize=12;startSize=8;endSize=8;curved=1;" parent="1" source="68" target="106" edge="1">
          <mxGeometry relative="1" as="geometry">
            <mxPoint x="3030" y="2640" as="sourcePoint" />
            <mxPoint x="3190" y="2640" as="targetPoint" />
          </mxGeometry>
        </mxCell>
        <mxCell id="113" value="OperatingSystem" style="whiteSpace=wrap;html=1;align=center;fontSize=16;" parent="1" vertex="1">
          <mxGeometry x="3177.6100000000006" y="1870" width="143.39" height="40" as="geometry" />
        </mxCell>
        <mxCell id="114" value="" style="endArrow=none;html=1;rounded=0;fontSize=12;startSize=8;endSize=8;curved=1;startArrow=oval;startFill=0;" parent="1" source="12" target="128" edge="1">
          <mxGeometry relative="1" as="geometry">
            <mxPoint x="3291" y="3410" as="sourcePoint" />
            <mxPoint x="3201" y="3490" as="targetPoint" />
          </mxGeometry>
        </mxCell>
        <mxCell id="115" value="" style="resizable=0;html=1;whiteSpace=wrap;align=right;verticalAlign=bottom;fontSize=16;" parent="114" connectable="0" vertex="1">
          <mxGeometry x="1" relative="1" as="geometry" />
        </mxCell>
        <mxCell id="139" value="N" style="edgeLabel;html=1;align=center;verticalAlign=middle;resizable=0;points=[];fontSize=16;" parent="114" vertex="1" connectable="0">
          <mxGeometry relative="1" as="geometry">
            <mxPoint as="offset" />
          </mxGeometry>
        </mxCell>
        <mxCell id="127" value="" style="endArrow=none;html=1;rounded=0;fontSize=12;startSize=8;endSize=8;curved=1;" parent="1" source="113" target="163" edge="1">
          <mxGeometry relative="1" as="geometry">
            <mxPoint x="3122.61" y="3020" as="sourcePoint" />
            <mxPoint x="3277.2546609406727" y="3114.1421356237306" as="targetPoint" />
          </mxGeometry>
        </mxCell>
        <mxCell id="128" value="runs on" style="shape=rhombus;perimeter=rhombusPerimeter;whiteSpace=wrap;html=1;align=center;fontSize=16;" parent="1" vertex="1">
          <mxGeometry x="3000" y="1750" width="120" height="60" as="geometry" />
        </mxCell>
        <mxCell id="130" value="name" style="ellipse;whiteSpace=wrap;html=1;align=center;fontSize=16;" parent="1" vertex="1">
          <mxGeometry x="3390" y="1940" width="100" height="40" as="geometry" />
        </mxCell>
        <mxCell id="131" value="description" style="ellipse;whiteSpace=wrap;html=1;align=center;fontSize=16;" parent="1" vertex="1">
          <mxGeometry x="3350" y="2040" width="100" height="40" as="geometry" />
        </mxCell>
        <mxCell id="136" value="" style="endArrow=none;html=1;rounded=0;fontSize=12;startSize=8;endSize=8;curved=1;" parent="1" source="113" target="130" edge="1">
          <mxGeometry relative="1" as="geometry">
            <mxPoint x="3122.61" y="3100" as="sourcePoint" />
            <mxPoint x="3282.61" y="3100" as="targetPoint" />
          </mxGeometry>
        </mxCell>
        <mxCell id="137" value="" style="endArrow=none;html=1;rounded=0;fontSize=12;startSize=8;endSize=8;curved=1;" parent="1" source="113" target="131" edge="1">
          <mxGeometry relative="1" as="geometry">
            <mxPoint x="3122.61" y="3100" as="sourcePoint" />
            <mxPoint x="3282.61" y="3100" as="targetPoint" />
          </mxGeometry>
        </mxCell>
        <mxCell id="140" value="version" style="ellipse;whiteSpace=wrap;html=1;align=center;fontSize=16;" parent="1" vertex="1">
          <mxGeometry x="3221" y="2070" width="100" height="40" as="geometry" />
        </mxCell>
        <mxCell id="141" value="" style="endArrow=none;html=1;rounded=0;fontSize=12;startSize=8;endSize=8;curved=1;" parent="1" source="140" target="113" edge="1">
          <mxGeometry relative="1" as="geometry">
            <mxPoint x="2956" y="3020" as="sourcePoint" />
            <mxPoint x="3116" y="3020" as="targetPoint" />
          </mxGeometry>
        </mxCell>
        <mxCell id="142" value="" style="endArrow=oval;html=1;rounded=0;fontSize=12;startSize=8;endSize=8;curved=1;endFill=0;" parent="1" source="128" target="113" edge="1">
          <mxGeometry relative="1" as="geometry">
            <mxPoint x="2956" y="3020" as="sourcePoint" />
            <mxPoint x="3116" y="3020" as="targetPoint" />
          </mxGeometry>
        </mxCell>
        <mxCell id="143" value="N" style="edgeLabel;html=1;align=center;verticalAlign=middle;resizable=0;points=[];fontSize=16;" parent="142" vertex="1" connectable="0">
          <mxGeometry relative="1" as="geometry">
            <mxPoint as="offset" />
          </mxGeometry>
        </mxCell>
        <mxCell id="144" style="edgeStyle=none;curved=1;rounded=0;orthogonalLoop=1;jettySize=auto;html=1;exitX=0.5;exitY=1;exitDx=0;exitDy=0;fontSize=12;startSize=8;endSize=8;" parent="1" source="13" target="13" edge="1">
          <mxGeometry relative="1" as="geometry" />
        </mxCell>
        <mxCell id="145" value="Tag" style="whiteSpace=wrap;html=1;align=center;fontSize=16;" parent="1" vertex="1">
          <mxGeometry x="3131" y="1180" width="100" height="40" as="geometry" />
        </mxCell>
        <mxCell id="146" value="has" style="shape=rhombus;perimeter=rhombusPerimeter;whiteSpace=wrap;html=1;align=center;fontSize=16;" parent="1" vertex="1">
          <mxGeometry x="3070" y="1310" width="120" height="60" as="geometry" />
        </mxCell>
        <mxCell id="147" value="" style="endArrow=oval;html=1;rounded=0;fontSize=12;startSize=8;endSize=8;curved=1;startArrow=none;startFill=0;endFill=0;" parent="1" source="146" target="12" edge="1">
          <mxGeometry relative="1" as="geometry">
            <mxPoint x="2851" y="3540" as="sourcePoint" />
            <mxPoint x="3011" y="3540" as="targetPoint" />
          </mxGeometry>
        </mxCell>
        <mxCell id="161" value="N" style="edgeLabel;html=1;align=center;verticalAlign=middle;resizable=0;points=[];fontSize=16;" parent="147" vertex="1" connectable="0">
          <mxGeometry relative="1" as="geometry">
            <mxPoint as="offset" />
          </mxGeometry>
        </mxCell>
        <mxCell id="148" value="" style="endArrow=none;html=1;rounded=0;fontSize=12;startSize=8;endSize=8;curved=1;endFill=0;startArrow=oval;startFill=0;" parent="1" source="145" target="146" edge="1">
          <mxGeometry relative="1" as="geometry">
            <mxPoint x="2833.22" y="3400" as="sourcePoint" />
            <mxPoint x="3160.997777777778" y="1288.8888888888891" as="targetPoint" />
          </mxGeometry>
        </mxCell>
        <mxCell id="160" value="N" style="edgeLabel;html=1;align=center;verticalAlign=middle;resizable=0;points=[];fontSize=16;" parent="148" vertex="1" connectable="0">
          <mxGeometry relative="1" as="geometry">
            <mxPoint as="offset" />
          </mxGeometry>
        </mxCell>
        <mxCell id="149" value="id" style="ellipse;whiteSpace=wrap;html=1;align=center;fontStyle=4;fontSize=16;" parent="1" vertex="1">
          <mxGeometry x="3035" y="1100" width="100" height="40" as="geometry" />
        </mxCell>
        <mxCell id="150" value="name" style="ellipse;whiteSpace=wrap;html=1;align=center;fontSize=16;" parent="1" vertex="1">
          <mxGeometry x="3150" y="1080" width="100" height="40" as="geometry" />
        </mxCell>
        <mxCell id="151" value="&lt;div&gt;description&lt;/div&gt;" style="ellipse;whiteSpace=wrap;html=1;align=center;fontSize=16;" parent="1" vertex="1">
          <mxGeometry x="3250" y="1130" width="100" height="40" as="geometry" />
        </mxCell>
        <mxCell id="154" value="" style="endArrow=none;html=1;rounded=0;fontSize=12;startSize=8;endSize=8;curved=1;" parent="1" source="145" target="150" edge="1">
          <mxGeometry relative="1" as="geometry">
            <mxPoint x="3719.22" y="1670" as="sourcePoint" />
            <mxPoint x="3879.22" y="1670" as="targetPoint" />
          </mxGeometry>
        </mxCell>
        <mxCell id="155" value="" style="endArrow=none;html=1;rounded=0;fontSize=12;startSize=8;endSize=8;curved=1;" parent="1" source="145" target="151" edge="1">
          <mxGeometry relative="1" as="geometry">
            <mxPoint x="3719.22" y="1670" as="sourcePoint" />
            <mxPoint x="3879.22" y="1670" as="targetPoint" />
          </mxGeometry>
        </mxCell>
        <mxCell id="157" value="" style="endArrow=none;html=1;rounded=0;fontSize=12;startSize=8;endSize=8;curved=1;" parent="1" source="145" target="149" edge="1">
          <mxGeometry relative="1" as="geometry">
            <mxPoint x="3719.22" y="1670" as="sourcePoint" />
            <mxPoint x="3879.22" y="1670" as="targetPoint" />
          </mxGeometry>
        </mxCell>
        <mxCell id="158" value="picture" style="ellipse;whiteSpace=wrap;html=1;align=center;fontSize=16;" parent="1" vertex="1">
          <mxGeometry x="2111" y="1260" width="100" height="40" as="geometry" />
        </mxCell>
        <mxCell id="159" style="edgeStyle=none;curved=1;rounded=0;orthogonalLoop=1;jettySize=auto;html=1;exitX=0.5;exitY=1;exitDx=0;exitDy=0;fontSize=12;startSize=8;endSize=8;" parent="1" source="158" target="158" edge="1">
          <mxGeometry relative="1" as="geometry" />
        </mxCell>
        <mxCell id="162" value="" style="endArrow=none;html=1;rounded=0;fontSize=12;startSize=8;endSize=8;curved=1;" parent="1" source="2" target="158" edge="1">
          <mxGeometry relative="1" as="geometry">
            <mxPoint x="2901" y="1780" as="sourcePoint" />
            <mxPoint x="3061" y="1780" as="targetPoint" />
          </mxGeometry>
        </mxCell>
        <mxCell id="163" value="&lt;div&gt;id&lt;/div&gt;" style="ellipse;whiteSpace=wrap;html=1;align=center;fontStyle=4;fontSize=16;" parent="1" vertex="1">
          <mxGeometry x="3389.9999999999995" y="1860" width="100" height="40" as="geometry" />
        </mxCell>
        <mxCell id="248" value="last_login" style="ellipse;whiteSpace=wrap;html=1;align=center;fontSize=16;" parent="1" vertex="1">
          <mxGeometry x="2160" y="1340" width="100" height="40" as="geometry" />
        </mxCell>
        <mxCell id="249" value="" style="endArrow=none;html=1;rounded=0;fontSize=12;startSize=8;endSize=8;curved=1;" parent="1" source="2" target="248" edge="1">
          <mxGeometry relative="1" as="geometry">
            <mxPoint x="2576" y="1710" as="sourcePoint" />
            <mxPoint x="2626" y="1530" as="targetPoint" />
          </mxGeometry>
        </mxCell>
        <mxCell id="252" value="Review" style="whiteSpace=wrap;html=1;align=center;fontSize=16;" parent="1" vertex="1">
          <mxGeometry x="2420" y="1000" width="100" height="40" as="geometry" />
        </mxCell>
        <mxCell id="254" value="author of" style="shape=rhombus;perimeter=rhombusPerimeter;whiteSpace=wrap;html=1;align=center;fontSize=16;" parent="1" vertex="1">
          <mxGeometry x="2290" y="1120" width="120" height="60" as="geometry" />
        </mxCell>
        <mxCell id="255" value="uuid" style="ellipse;whiteSpace=wrap;html=1;align=center;fontStyle=4;fontSize=16;strokeColor=default;" parent="1" vertex="1">
          <mxGeometry x="2270" y="880" width="100" height="40" as="geometry" />
        </mxCell>
        <mxCell id="256" value="&lt;div&gt;title&lt;/div&gt;" style="ellipse;whiteSpace=wrap;html=1;align=center;fontSize=16;" parent="1" vertex="1">
          <mxGeometry x="2400" y="810" width="100" height="40" as="geometry" />
        </mxCell>
        <mxCell id="258" value="text" style="ellipse;whiteSpace=wrap;html=1;align=center;fontSize=16;" parent="1" vertex="1">
          <mxGeometry x="2530" y="800" width="100" height="40" as="geometry" />
        </mxCell>
        <mxCell id="259" value="" style="endArrow=none;html=1;rounded=0;fontSize=12;startSize=8;endSize=8;curved=1;" parent="1" source="258" target="252" edge="1">
          <mxGeometry relative="1" as="geometry">
            <mxPoint x="2529" y="1410" as="sourcePoint" />
            <mxPoint x="2689" y="1410" as="targetPoint" />
          </mxGeometry>
        </mxCell>
        <mxCell id="260" value="" style="endArrow=none;html=1;rounded=0;fontSize=12;startSize=8;endSize=8;curved=1;" parent="1" source="252" target="256" edge="1">
          <mxGeometry relative="1" as="geometry">
            <mxPoint x="2550" y="1410" as="sourcePoint" />
            <mxPoint x="2609" y="1410" as="targetPoint" />
          </mxGeometry>
        </mxCell>
        <mxCell id="261" value="" style="endArrow=none;html=1;rounded=0;fontSize=12;startSize=8;endSize=8;curved=1;" parent="1" source="255" target="252" edge="1">
          <mxGeometry relative="1" as="geometry">
            <mxPoint x="2560" y="1420" as="sourcePoint" />
            <mxPoint x="2619" y="1420" as="targetPoint" />
          </mxGeometry>
        </mxCell>
        <mxCell id="263" value="for" style="shape=rhombus;perimeter=rhombusPerimeter;whiteSpace=wrap;html=1;align=center;fontSize=16;" parent="1" vertex="1">
          <mxGeometry x="2569.25" y="1130" width="120" height="60" as="geometry" />
        </mxCell>
        <mxCell id="264" value="" style="endArrow=none;html=1;rounded=0;fontSize=12;startSize=8;endSize=8;curved=1;" parent="1" source="2" target="254" edge="1">
          <mxGeometry relative="1" as="geometry">
            <mxPoint x="2530" y="1750" as="sourcePoint" />
            <mxPoint x="2690" y="1750" as="targetPoint" />
          </mxGeometry>
        </mxCell>
        <mxCell id="268" value="1" style="edgeLabel;html=1;align=center;verticalAlign=middle;resizable=0;points=[];fontSize=16;" parent="264" vertex="1" connectable="0">
          <mxGeometry relative="1" as="geometry">
            <mxPoint as="offset" />
          </mxGeometry>
        </mxCell>
        <mxCell id="266" value="" style="endArrow=none;html=1;rounded=0;fontSize=12;startSize=8;endSize=8;curved=1;startArrow=oval;startFill=0;" parent="1" source="252" target="254" edge="1">
          <mxGeometry relative="1" as="geometry">
            <mxPoint x="2154" y="900" as="sourcePoint" />
            <mxPoint x="2387" y="1091" as="targetPoint" />
          </mxGeometry>
        </mxCell>
        <mxCell id="269" value="N" style="edgeLabel;html=1;align=center;verticalAlign=middle;resizable=0;points=[];fontSize=16;" parent="266" vertex="1" connectable="0">
          <mxGeometry relative="1" as="geometry">
            <mxPoint as="offset" />
          </mxGeometry>
        </mxCell>
        <mxCell id="270" value="" style="endArrow=none;html=1;rounded=0;fontSize=12;startSize=8;endSize=8;curved=1;startArrow=oval;startFill=0;" parent="1" source="252" target="263" edge="1">
          <mxGeometry relative="1" as="geometry">
            <mxPoint x="2429" y="1100" as="sourcePoint" />
            <mxPoint x="2589" y="1100" as="targetPoint" />
          </mxGeometry>
        </mxCell>
        <mxCell id="274" value="N" style="edgeLabel;html=1;align=center;verticalAlign=middle;resizable=0;points=[];fontSize=16;" parent="270" vertex="1" connectable="0">
          <mxGeometry relative="1" as="geometry">
            <mxPoint as="offset" />
          </mxGeometry>
        </mxCell>
        <mxCell id="272" value="" style="endArrow=none;html=1;rounded=0;fontSize=12;startSize=8;endSize=8;curved=1;" parent="1" source="263" target="12" edge="1">
          <mxGeometry relative="1" as="geometry">
            <mxPoint x="2519" y="1860" as="sourcePoint" />
            <mxPoint x="2642" y="1721" as="targetPoint" />
          </mxGeometry>
        </mxCell>
        <mxCell id="275" value="1" style="edgeLabel;html=1;align=center;verticalAlign=middle;resizable=0;points=[];fontSize=16;" parent="272" vertex="1" connectable="0">
          <mxGeometry relative="1" as="geometry">
            <mxPoint as="offset" />
          </mxGeometry>
        </mxCell>
        <mxCell id="276" value="is contributing" style="shape=rhombus;perimeter=rhombusPerimeter;whiteSpace=wrap;html=1;align=center;fontSize=16;" parent="1" vertex="1">
          <mxGeometry x="2449" y="1400" width="130.5" height="60" as="geometry" />
        </mxCell>
        <mxCell id="277" value="" style="endArrow=oval;html=1;rounded=0;fontSize=12;startSize=8;endSize=8;startArrow=none;startFill=0;endFill=0;" parent="1" source="276" target="12" edge="1">
          <mxGeometry relative="1" as="geometry">
            <mxPoint x="2586" y="1415" as="sourcePoint" />
            <mxPoint x="2826" y="1469" as="targetPoint" />
          </mxGeometry>
        </mxCell>
        <mxCell id="278" value="N" style="edgeLabel;html=1;align=center;verticalAlign=middle;resizable=0;points=[];fontSize=16;" parent="277" vertex="1" connectable="0">
          <mxGeometry relative="1" as="geometry">
            <mxPoint as="offset" />
          </mxGeometry>
        </mxCell>
        <mxCell id="279" value="" style="endArrow=none;html=1;rounded=0;fontSize=12;startSize=8;endSize=8;startArrow=none;startFill=0;endFill=0;" parent="1" source="276" target="2" edge="1">
          <mxGeometry relative="1" as="geometry">
            <mxPoint x="2556" y="1533" as="sourcePoint" />
            <mxPoint x="2826" y="1488" as="targetPoint" />
          </mxGeometry>
        </mxCell>
        <mxCell id="280" value="N" style="edgeLabel;html=1;align=center;verticalAlign=middle;resizable=0;points=[];fontSize=16;" parent="279" vertex="1" connectable="0">
          <mxGeometry relative="1" as="geometry">
            <mxPoint as="offset" />
          </mxGeometry>
        </mxCell>
        <mxCell id="281" value="" style="endArrow=none;html=1;rounded=0;fontSize=12;startSize=8;endSize=8;curved=1;startArrow=oval;startFill=0;" parent="1" source="12" target="291" edge="1">
          <mxGeometry relative="1" as="geometry">
            <mxPoint x="2867" y="1460" as="sourcePoint" />
            <mxPoint x="2800" y="1320" as="targetPoint" />
          </mxGeometry>
        </mxCell>
        <mxCell id="294" value="N" style="edgeLabel;html=1;align=center;verticalAlign=middle;resizable=0;points=[];fontSize=16;" parent="281" vertex="1" connectable="0">
          <mxGeometry relative="1" as="geometry">
            <mxPoint as="offset" />
          </mxGeometry>
        </mxCell>
        <mxCell id="286" value="date_created" style="ellipse;whiteSpace=wrap;html=1;align=center;fontSize=16;" parent="1" vertex="1">
          <mxGeometry x="2620" y="900" width="100" height="40" as="geometry" />
        </mxCell>
        <mxCell id="287" value="" style="endArrow=none;html=1;rounded=0;fontSize=12;startSize=8;endSize=8;curved=1;" parent="1" source="286" target="252" edge="1">
          <mxGeometry relative="1" as="geometry">
            <mxPoint x="2454" y="1350" as="sourcePoint" />
            <mxPoint x="2494" y="1190" as="targetPoint" />
          </mxGeometry>
        </mxCell>
        <mxCell id="291" value="star" style="shape=rhombus;perimeter=rhombusPerimeter;whiteSpace=wrap;html=1;align=center;fontSize=16;" parent="1" vertex="1">
          <mxGeometry x="2438.5" y="1210" width="120" height="60" as="geometry" />
        </mxCell>
        <mxCell id="292" value="" style="endArrow=none;html=1;rounded=0;fontSize=12;startSize=8;endSize=8;curved=1;startArrow=oval;startFill=0;" parent="1" source="2" target="291" edge="1">
          <mxGeometry relative="1" as="geometry">
            <mxPoint x="2191" y="1470" as="sourcePoint" />
            <mxPoint x="2450" y="1419" as="targetPoint" />
          </mxGeometry>
        </mxCell>
        <mxCell id="293" value="&lt;div&gt;N&lt;br&gt;&lt;/div&gt;" style="edgeLabel;html=1;align=center;verticalAlign=middle;resizable=0;points=[];fontSize=16;" parent="292" vertex="1" connectable="0">
          <mxGeometry relative="1" as="geometry">
            <mxPoint as="offset" />
          </mxGeometry>
        </mxCell>
        <mxCell id="327" value="contributor_amount" style="ellipse;whiteSpace=wrap;html=1;align=center;dashed=1;fontSize=16;" parent="1" vertex="1">
          <mxGeometry x="2700" y="1080" width="180" height="40" as="geometry" />
        </mxCell>
        <mxCell id="328" value="" style="endArrow=none;html=1;rounded=0;fontSize=12;startSize=8;endSize=8;curved=1;" parent="1" source="12" target="327" edge="1">
          <mxGeometry relative="1" as="geometry">
            <mxPoint x="2760" y="1590" as="sourcePoint" />
            <mxPoint x="2920" y="1590" as="targetPoint" />
          </mxGeometry>
        </mxCell>
        <mxCell id="329" value="star_amount" style="ellipse;whiteSpace=wrap;html=1;align=center;dashed=1;fontSize=16;" parent="1" vertex="1">
          <mxGeometry x="2820" y="1210" width="100" height="40" as="geometry" />
        </mxCell>
        <mxCell id="330" value="" style="endArrow=none;html=1;rounded=0;fontSize=12;startSize=8;endSize=8;curved=1;" parent="1" source="329" target="12" edge="1">
          <mxGeometry relative="1" as="geometry">
            <mxPoint x="2760" y="1590" as="sourcePoint" />
            <mxPoint x="2920" y="1590" as="targetPoint" />
          </mxGeometry>
        </mxCell>
        <mxCell id="332" value="belongs to" style="shape=rhombus;perimeter=rhombusPerimeter;whiteSpace=wrap;html=1;align=center;fontSize=16;" parent="1" vertex="1">
          <mxGeometry x="1930" y="1550" width="120" height="60" as="geometry" />
        </mxCell>
        <mxCell id="333" value="Permission" style="whiteSpace=wrap;html=1;align=center;fontSize=16;" parent="1" vertex="1">
          <mxGeometry x="2260" y="1800" width="100" height="40" as="geometry" />
        </mxCell>
        <mxCell id="334" value="Group" style="whiteSpace=wrap;html=1;align=center;fontSize=16;" parent="1" vertex="1">
          <mxGeometry x="1940" y="1700" width="100" height="40" as="geometry" />
        </mxCell>
        <mxCell id="335" value="has" style="shape=rhombus;perimeter=rhombusPerimeter;whiteSpace=wrap;html=1;align=center;fontSize=16;" parent="1" vertex="1">
          <mxGeometry x="2130" y="1590" width="120" height="60" as="geometry" />
        </mxCell>
        <mxCell id="336" value="has" style="shape=rhombus;perimeter=rhombusPerimeter;whiteSpace=wrap;html=1;align=center;fontSize=16;" parent="1" vertex="1">
          <mxGeometry x="1990" y="1790" width="120" height="60" as="geometry" />
        </mxCell>
        <mxCell id="337" value="" style="endArrow=oval;html=1;rounded=0;fontSize=12;startSize=8;endSize=8;startArrow=none;startFill=0;endFill=0;" parent="1" source="332" target="2" edge="1">
          <mxGeometry relative="1" as="geometry">
            <mxPoint x="2471" y="1446" as="sourcePoint" />
            <mxPoint x="2191" y="1475" as="targetPoint" />
          </mxGeometry>
        </mxCell>
        <mxCell id="338" value="N" style="edgeLabel;html=1;align=center;verticalAlign=middle;resizable=0;points=[];fontSize=16;" parent="337" vertex="1" connectable="0">
          <mxGeometry relative="1" as="geometry">
            <mxPoint as="offset" />
          </mxGeometry>
        </mxCell>
        <mxCell id="339" value="" style="endArrow=oval;html=1;rounded=0;fontSize=12;startSize=8;endSize=8;startArrow=none;startFill=0;endFill=0;" parent="1" source="332" target="334" edge="1">
          <mxGeometry relative="1" as="geometry">
            <mxPoint x="2141" y="1600" as="sourcePoint" />
            <mxPoint x="2141" y="1500" as="targetPoint" />
          </mxGeometry>
        </mxCell>
        <mxCell id="340" value="N" style="edgeLabel;html=1;align=center;verticalAlign=middle;resizable=0;points=[];fontSize=16;" parent="339" vertex="1" connectable="0">
          <mxGeometry relative="1" as="geometry">
            <mxPoint as="offset" />
          </mxGeometry>
        </mxCell>
        <mxCell id="341" value="" style="endArrow=oval;html=1;rounded=0;fontSize=12;startSize=8;endSize=8;startArrow=none;startFill=0;endFill=0;" parent="1" source="336" target="334" edge="1">
          <mxGeometry relative="1" as="geometry">
            <mxPoint x="2141" y="1660" as="sourcePoint" />
            <mxPoint x="2141" y="1750" as="targetPoint" />
          </mxGeometry>
        </mxCell>
        <mxCell id="342" value="N" style="edgeLabel;html=1;align=center;verticalAlign=middle;resizable=0;points=[];fontSize=16;" parent="341" vertex="1" connectable="0">
          <mxGeometry relative="1" as="geometry">
            <mxPoint as="offset" />
          </mxGeometry>
        </mxCell>
        <mxCell id="343" value="" style="endArrow=oval;html=1;rounded=0;fontSize=12;startSize=8;endSize=8;startArrow=none;startFill=0;endFill=0;" parent="1" source="336" target="333" edge="1">
          <mxGeometry relative="1" as="geometry">
            <mxPoint x="2151" y="1670" as="sourcePoint" />
            <mxPoint x="2240" y="1800" as="targetPoint" />
          </mxGeometry>
        </mxCell>
        <mxCell id="344" value="N" style="edgeLabel;html=1;align=center;verticalAlign=middle;resizable=0;points=[];fontSize=16;" parent="343" vertex="1" connectable="0">
          <mxGeometry relative="1" as="geometry">
            <mxPoint as="offset" />
          </mxGeometry>
        </mxCell>
        <mxCell id="345" value="" style="endArrow=oval;html=1;rounded=0;fontSize=12;startSize=8;endSize=8;startArrow=none;startFill=0;endFill=0;" parent="1" source="335" target="2" edge="1">
          <mxGeometry relative="1" as="geometry">
            <mxPoint x="2161" y="1680" as="sourcePoint" />
            <mxPoint x="2161" y="1770" as="targetPoint" />
          </mxGeometry>
        </mxCell>
        <mxCell id="346" value="N" style="edgeLabel;html=1;align=center;verticalAlign=middle;resizable=0;points=[];fontSize=16;" parent="345" vertex="1" connectable="0">
          <mxGeometry relative="1" as="geometry">
            <mxPoint as="offset" />
          </mxGeometry>
        </mxCell>
        <mxCell id="347" value="" style="endArrow=oval;html=1;rounded=0;fontSize=12;startSize=8;endSize=8;startArrow=none;startFill=0;endFill=0;" parent="1" source="335" target="333" edge="1">
          <mxGeometry relative="1" as="geometry">
            <mxPoint x="2171" y="1690" as="sourcePoint" />
            <mxPoint x="2171" y="1780" as="targetPoint" />
          </mxGeometry>
        </mxCell>
        <mxCell id="348" value="N" style="edgeLabel;html=1;align=center;verticalAlign=middle;resizable=0;points=[];fontSize=16;" parent="347" vertex="1" connectable="0">
          <mxGeometry relative="1" as="geometry">
            <mxPoint as="offset" />
          </mxGeometry>
        </mxCell>
        <mxCell id="349" value="" style="endArrow=none;html=1;rounded=0;fontSize=12;startSize=8;endSize=8;curved=1;" parent="1" source="333" target="430" edge="1">
          <mxGeometry relative="1" as="geometry">
            <mxPoint x="2438.5" y="1720" as="sourcePoint" />
            <mxPoint x="2520" y="1710" as="targetPoint" />
          </mxGeometry>
        </mxCell>
        <mxCell id="350" value="N" style="edgeLabel;html=1;align=center;verticalAlign=middle;resizable=0;points=[];fontSize=16;" parent="349" vertex="1" connectable="0">
          <mxGeometry relative="1" as="geometry">
            <mxPoint as="offset" />
          </mxGeometry>
        </mxCell>
        <mxCell id="362" value="name" style="ellipse;whiteSpace=wrap;html=1;align=center;fontSize=16;" parent="1" vertex="1">
          <mxGeometry x="1830" y="1620" width="100" height="40" as="geometry" />
        </mxCell>
        <mxCell id="363" value="id" style="ellipse;whiteSpace=wrap;html=1;align=center;fontStyle=4;fontSize=16;" parent="1" vertex="1">
          <mxGeometry x="1800" y="1700" width="100" height="40" as="geometry" />
        </mxCell>
        <mxCell id="364" value="" style="endArrow=none;html=1;rounded=0;fontSize=12;startSize=8;endSize=8;curved=1;" parent="1" source="363" target="334" edge="1">
          <mxGeometry relative="1" as="geometry">
            <mxPoint x="2250" y="1770" as="sourcePoint" />
            <mxPoint x="1990" y="1710" as="targetPoint" />
          </mxGeometry>
        </mxCell>
        <mxCell id="365" value="" style="endArrow=none;html=1;rounded=0;fontSize=12;startSize=8;endSize=8;curved=1;" parent="1" source="362" target="334" edge="1">
          <mxGeometry relative="1" as="geometry">
            <mxPoint x="1837" y="1707" as="sourcePoint" />
            <mxPoint x="1940" y="1723" as="targetPoint" />
          </mxGeometry>
        </mxCell>
        <mxCell id="366" value="" style="endArrow=none;html=1;rounded=0;fontSize=12;startSize=8;endSize=8;curved=1;" parent="1" source="367" target="333" edge="1">
          <mxGeometry relative="1" as="geometry">
            <mxPoint x="2230" y="1880" as="sourcePoint" />
            <mxPoint x="2006" y="1900" as="targetPoint" />
          </mxGeometry>
        </mxCell>
        <mxCell id="367" value="id" style="ellipse;whiteSpace=wrap;html=1;align=center;fontStyle=4;fontSize=16;" parent="1" vertex="1">
          <mxGeometry x="2420" y="1710" width="100" height="40" as="geometry" />
        </mxCell>
        <mxCell id="369" value="name" style="ellipse;whiteSpace=wrap;html=1;align=center;fontSize=16;" parent="1" vertex="1">
          <mxGeometry x="2470" y="1770" width="100" height="40" as="geometry" />
        </mxCell>
        <mxCell id="370" value="" style="endArrow=none;html=1;rounded=0;fontSize=12;startSize=8;endSize=8;curved=1;" parent="1" source="369" target="333" edge="1">
          <mxGeometry relative="1" as="geometry">
            <mxPoint x="2189" y="1756" as="sourcePoint" />
            <mxPoint x="2284" y="1810" as="targetPoint" />
          </mxGeometry>
        </mxCell>
        <mxCell id="430" value="owner of" style="shape=rhombus;perimeter=rhombusPerimeter;whiteSpace=wrap;html=1;align=center;fontSize=16;" parent="1" vertex="1">
          <mxGeometry x="2390" y="1510" width="120" height="60" as="geometry" />
        </mxCell>
        <mxCell id="433" value="" style="endArrow=none;html=1;rounded=0;fontSize=12;startSize=8;endSize=8;curved=1;" parent="1" source="333" target="254" edge="1">
          <mxGeometry relative="1" as="geometry">
            <mxPoint x="2337" y="1810" as="sourcePoint" />
            <mxPoint x="2512" y="1601" as="targetPoint" />
          </mxGeometry>
        </mxCell>
        <mxCell id="434" value="N" style="edgeLabel;html=1;align=center;verticalAlign=middle;resizable=0;points=[];fontSize=16;" parent="433" vertex="1" connectable="0">
          <mxGeometry relative="1" as="geometry">
            <mxPoint as="offset" />
          </mxGeometry>
        </mxCell>
        <mxCell id="436" value="can_create" style="ellipse;whiteSpace=wrap;html=1;align=center;fontSize=16;" parent="1" vertex="1">
          <mxGeometry x="2370" y="1860" width="100" height="40" as="geometry" />
        </mxCell>
        <mxCell id="437" value="can_change" style="ellipse;whiteSpace=wrap;html=1;align=center;fontSize=16;" parent="1" vertex="1">
          <mxGeometry x="2370" y="1960" width="100" height="40" as="geometry" />
        </mxCell>
        <mxCell id="438" value="can_delete" style="ellipse;whiteSpace=wrap;html=1;align=center;fontSize=16;" parent="1" vertex="1">
          <mxGeometry x="2140" y="1960.0000000000002" width="100" height="40" as="geometry" />
        </mxCell>
        <mxCell id="439" value="can_view" style="ellipse;whiteSpace=wrap;html=1;align=center;fontSize=16;" parent="1" vertex="1">
          <mxGeometry x="2250" y="1910" width="100" height="40" as="geometry" />
        </mxCell>
        <mxCell id="441" value="" style="endArrow=none;html=1;rounded=0;fontSize=12;startSize=8;endSize=8;curved=1;" parent="1" source="436" target="333" edge="1">
          <mxGeometry relative="1" as="geometry">
            <mxPoint x="2158" y="1887" as="sourcePoint" />
            <mxPoint x="2270" y="1848" as="targetPoint" />
          </mxGeometry>
        </mxCell>
        <mxCell id="442" value="" style="endArrow=none;html=1;rounded=0;fontSize=12;startSize=8;endSize=8;curved=1;" parent="1" source="437" target="333" edge="1">
          <mxGeometry relative="1" as="geometry">
            <mxPoint x="2168" y="1897" as="sourcePoint" />
            <mxPoint x="2300" y="1800" as="targetPoint" />
          </mxGeometry>
        </mxCell>
        <mxCell id="443" value="" style="endArrow=none;html=1;rounded=0;fontSize=12;startSize=8;endSize=8;curved=1;fontStyle=1" parent="1" source="438" target="333" edge="1">
          <mxGeometry relative="1" as="geometry">
            <mxPoint x="2178" y="1907" as="sourcePoint" />
            <mxPoint x="2290" y="1868" as="targetPoint" />
          </mxGeometry>
        </mxCell>
        <mxCell id="444" value="" style="endArrow=none;html=1;rounded=0;fontSize=12;startSize=8;endSize=8;curved=1;" parent="1" source="439" target="333" edge="1">
          <mxGeometry relative="1" as="geometry">
            <mxPoint x="2188" y="1917" as="sourcePoint" />
            <mxPoint x="2300" y="1878" as="targetPoint" />
          </mxGeometry>
        </mxCell>
      </root>
    </mxGraphModel>
  </diagram>
</mxfile>
